<svg width="24" height="23" viewBox="0 0 24 23" fill="none" xmlns="http://www.w3.org/2000/svg">
<path d="M12 22.2053L10.9893 21.292C8.81333 19.3044 7.01333 17.6027 5.58933 16.1867C4.16533 14.7707 3.04133 13.5227 2.21733 12.4427C1.39333 11.3627 0.817778 10.3844 0.490667 9.508C0.163556 8.63156 0 7.75111 0 6.86667C0 5.17067 0.576 3.74667 1.728 2.59467C2.88 1.44267 4.304 0.866669 6 0.866669C7.17333 0.866669 8.27333 1.16667 9.3 1.76667C10.3267 2.36667 11.2267 3.23911 12 4.384C12.7733 3.23911 13.6733 2.36667 14.7 1.76667C15.7267 1.16667 16.8267 0.866669 18 0.866669C19.696 0.866669 21.12 1.44267 22.272 2.59467C23.424 3.74667 24 5.17067 24 6.86667C24 7.752 23.8364 8.632 23.5093 9.50667C23.1822 10.3813 22.6067 11.36 21.7827 12.4427C20.9587 13.5253 19.8387 14.7733 18.4227 16.1867C17.0067 17.6 15.2022 19.3022 13.0093 21.2933L12 22.2053ZM12 20.4C14.1333 18.4711 15.8889 16.8196 17.2667 15.4453C18.6444 14.0711 19.7333 12.8778 20.5333 11.8653C21.3333 10.8529 21.8889 9.95734 22.2 9.17867C22.5111 8.4 22.6667 7.62933 22.6667 6.86667C22.6667 5.53333 22.2222 4.42222 21.3333 3.53334C20.4444 2.64445 19.3333 2.2 18 2.2C16.9387 2.2 15.9591 2.50311 15.0613 3.10933C14.1636 3.71556 13.36 4.628 12.6507 5.84667H11.3493C10.6222 4.61111 9.81422 3.69422 8.92533 3.096C8.03644 2.49867 7.06133 2.2 6 2.2C4.68444 2.2 3.57778 2.64445 2.68 3.53334C1.78222 4.42222 1.33333 5.53333 1.33333 6.86667C1.33333 7.62756 1.48889 8.39822 1.8 9.17867C2.11111 9.95911 2.66667 10.8547 3.46667 11.8653C4.26667 12.876 5.35556 14.0649 6.73333 15.432C8.11111 16.7991 9.86667 18.4551 12 20.4Z" fill="white"/>
</svg>
